<svg width="20" height="22" viewBox="0 0 20 22" fill="none" xmlns="http://www.w3.org/2000/svg">
<path d="M12.25 9.75H17.75V16.75C17.75 18.9591 15.9591 20.75 13.75 20.75H5.75C3.54086 20.75 1.75 18.9591 1.75 16.75V9.75H7.25" stroke="#F1513B" stroke-width="1.5"/>
<path d="M14.25 9.75H17.25C18.0784 9.75 18.75 9.07843 18.75 8.25V6.25C18.75 5.42157 18.0784 4.75 17.25 4.75H2.25C1.42157 4.75 0.75 5.42157 0.75 6.25V8.25C0.75 9.07843 1.42157 9.75 2.25 9.75H5.25" stroke="#F1513B" stroke-width="1.5"/>
<path d="M9.75 3.25C9.75 1.86929 10.8693 0.75 12.25 0.75H12.75C13.8546 0.75 14.75 1.64543 14.75 2.75C14.75 3.85457 13.8546 4.75 12.75 4.75H9.75V3.25Z" stroke="#F1513B" stroke-width="1.5"/>
<path d="M9.75 3.25C9.75 1.86929 8.63071 0.75 7.25 0.75H6.75C5.64543 0.75 4.75 1.64543 4.75 2.75C4.75 3.85457 5.64543 4.75 6.75 4.75H9.75V3.25Z" stroke="#F1513B" stroke-width="1.5"/>
<path d="M12.25 4.75L12.25 20.75L7.25 20.75L7.25 4.75L12.25 4.75Z" stroke="#F1513B" stroke-width="1.5"/>
</svg>
